# xmcd
#
# Track frame offsets:
#	150
#	12229
#	28225
#	39048
#	57125
#	72260
#	83542
#	99768
#	117999
#	149873
#	160386
#	181681
#	210809
#	225873
#	239016
#	254128
#	260816
#	274728
#	288330
#
# Disc length: 4083 seconds
#
# Revision: 0
# Processed by: cddbd v1.5.2PL0 Copyright (c) Steve Scherf et al.
# Submitted via: EasyCDDAExtractor 16.0.6.1
#
DISCID=060ff113
DTITLE=Συλλογικός δίσκος - Τα μελοποιημένα 25
DYEAR=2010
DGENRE=Έντεχνη
TTITLE0=Δήμου Ελένη - Μη μού χτυπάς μεσάνυχτα την πόρτα[Δ.Μούτσης-Ν.Γκάτσος]
TTITLE1=Μοσχολιού Βίκυ - Τζετ [Στ. Κραουνάκης-Κ. Τριπολίτης]
TTITLE2=Αρλέτα - Νάνι νάνι [Σπ. Αργύρης-B. Brecht, απ.Στ. Μελισσινός]
TTITLE3=Πουλόπουλος Γιάννης - Πατρίδα ζητάμε..[Γ. Γλέζος-P. Neruda, απ.Λ.Παπαδ
TTITLE3=όπουλος]
TTITLE4=Δήμου Ελένη - Τα χέρια [Γ. Σπανός-Λ. Παπαδόπουλος]
TTITLE5=Καπαρού Αργυρώ - Ο χωρισμός [Γ. Ζαμπέτας-Δ. Χριστοδούλου]
TTITLE6=Παπάζογλου Σοφία - Άσπρες νύχτες [Ν. Μαμαγκάκης-Βικτ. Μακρή]
TTITLE7=Ξυδούς Μάνος - Πάντα [Μ. Ξυδούς-Χαρ. Χατζηνάκης]
TTITLE8=Γιαννάτου Σαβίνα-Χριστογιαννόπουλος Τάσης - Σε προσέχω σαν δάκρυ [Μ. Γ
TTITLE8=ρηγορίου-Ρ. Παπανικόλα]
TTITLE9=Καλογιάννης Αντώνης - Σε κάποιο μαγαζί [Ηλ. Ανδριόπουλος-Μ. Μπουρμπούλ
TTITLE9=ης]
TTITLE10=Μάνου Αφροδίτη - Σού τό 'πα για τα σύννεφα [Μ. Τρανουδάκης-Ο. Ελύτης]
TTITLE11=Πανδής Πέτρος - Και περνούσαν τα τραμ [Μ. Θεοδωράκης-Μ. Αναγνωστάκης]
TTITLE12=Θηβαίος Χρήστος και η ''παρέα'' - Θυμάμαι [''Frieda'', Β. Δημητρίου-Λ
TTITLE12=έων Κουκούλας]
TTITLE13=Χορωδία - Αρματωμένα βουνά [Σπ. Σαμοΐλης-Μεν. Λουντέμης]
TTITLE14=Χωματά Καίτη - Μοιρολόϊ Ερωφύλης [Ν. Μαμαγκάκης-Γ. Χορτάτζης]
TTITLE15=Χριστιανόπουλος Ντίνος - Μπατιρημένο κουρείο [Στ.Κουγιουμτζής-Ντ.Χρισ
TTITLE15=τιανόπουλος]
TTITLE16=Βελισσαρίου Ρένα - Η παρέα [Σαρ. Κασσάρας-Γ. Σκαρίμπας]
TTITLE17=Κυριαζή Ρένα - Το φύλλο της λεύκας [Τ. Αρβανιτάκης-Γ. Σεφέρης]
TTITLE18=Δημητριάδη Μαρία-χορωδία - Τη Ρωμιοσύνη μην την κλαίς [Μ. Θεοδωράκης-
TTITLE18=Γ. Ρίτσος]
EXTD=
EXTT0=
EXTT1=
EXTT2=
EXTT3=
EXTT4=
EXTT5=
EXTT6=
EXTT7=
EXTT8=
EXTT9=
EXTT10=
EXTT11=
EXTT12=
EXTT13=
EXTT14=
EXTT15=
EXTT16=
EXTT17=
EXTT18=
PLAYORDER=
